{"title":"Blackout 2013 WEBRip 480p x264 AAC - VYTO [P2PDL]","uid":8754620,"size":294881931,"categoryP":"video","categoryS":"movies","magnet":"?xt=urn:btih:55dddca471ddcaeb83d0146d25857684964d72cc&amp;dn=Blackout+2013+WEBRip+480p+x264+AAC+-+VYTO+%5BP2PDL%5D&amp;tr=udp%3A%2F%2Ftracker.openbittorrent.com%3A80&amp;tr=udp%3A%2F%2Fopen.demonii.com%3A1337&amp;tr=udp%3A%2F%2Ftracker.coppersurfer.tk%3A6969&amp;tr=udp%3A%2F%2Fexodus.desync.com%3A6969","seeders":1,"leechers":0,"uploader":"Vitamin_X","files":-1,"time":1375118957,"description":"_______ Visit us at our Semi Public Bittorrent Community ________\n  &lt;a href=&quot;\nhttp://p2pdl.com&quot; rel=&quot;nofollow&quot; target=&quot;_NEW&quot;&gt;\nhttp://p2pdl.com&lt;/a&gt;  _____________________________ &lt;a href=&quot; http://p2pdl.com&quot; rel=&quot;nofollow&quot; target=&quot;_NEW&quot;&gt; http://p2pdl.com&lt;/a&gt;\n\nBlackout 2013 WEBRip 480p x264 AAC - VYTO\n\nGenre: Thriller\nPlot: A young attorney's life is turned upside when he \nwakes to find a dead woman in his apartment.\nDirector: Matthew K. Hacker\nStars: Timothy Woodward Jr., Bill Oberst Jr., Robert Covington.\nRated: N/A\n\nIMDb: &lt;a href=&quot;\nhttp://www.imdb.com/title/tt2251227/&quot; rel=&quot;nofollow&quot; target=&quot;_NEW&quot;&gt;\nhttp://www.imdb.com/title/tt2251227/&lt;/a&gt;\n\nGeneral\nFormat                         : MPEG-4\nFile size                      : 276 MiB\nDuration                       : 1h 19mn\nOverall bit rate mode          : Variable\nOverall bit rate               : 484 Kbps\n\nVideo\nFormat                         : AVC\nDuration                       : 1h 19mn\nBit rate                       : 442 Kbps\nWidth                          : 720 pixels\nHeight                         : 304 pixels\nDisplay aspect ratio           : 2.35:1\nFrame rate mode                : Constant\nFrame rate                     : 23.976 fps\nBit depth                      : 10 bits\nStream size                    : 251 MiB (91%)\nWriting library                : x264 core 130 r2273 b3065e6\n\nAudio\nFormat                         : AAC\nBit rate                       : 39.9 Kbps\nChannel(s)                     : 2 channels\nChannel positions              : Front: L R\nSampling rate                  : 48.0 KHz / 24.0 KHz\nStream size                    : 22.7 MiB (8%)\nLanguage                       : English\n\nSubtitle                       : Yes(English)\nSource                         : WEB-DL-PublicHD\n &lt;a href=&quot;\nhttp://ultraimg.com/images/zFabO.png&quot; rel=&quot;nofollow&quot; target=&quot;_NEW&quot;&gt;\nhttp://ultraimg.com/images/zFabO.png&lt;/a&gt; &lt;a href=&quot;\nhttp://ultraimg.com/images/tZPmE.png&quot; rel=&quot;nofollow&quot; target=&quot;_NEW&quot;&gt;\nhttp://ultraimg.com/images/tZPmE.png&lt;/a&gt; &lt;a href=&quot;\nhttp://ultraimg.com/images/RFH3n.png&quot; rel=&quot;nofollow&quot; target=&quot;_NEW&quot;&gt;\nhttp://ultraimg.com/images/RFH3n.png&lt;/a&gt; &lt;a href=&quot;\nhttp://ultraimg.com/images/2zrKx.png&quot; rel=&quot;nofollow&quot; target=&quot;_NEW&quot;&gt;\nhttp://ultraimg.com/images/2zrKx.png&lt;/a&gt; &lt;a href=&quot;\nhttp://ultraimg.com/images/2ShAl.png&quot; rel=&quot;nofollow&quot; target=&quot;_NEW&quot;&gt;\nhttp://ultraimg.com/images/2ShAl.png&lt;/a&gt;\n\n----------------------------------------------------------------------------------------------------\n\n\nEncoded using revolutionary 10bit encoding, which enables us to provide you more crispier \nand sharper images at small sizes, just make sure you follow our instructions without a fault.\nRecommend to you to use latest version of VLC player. Install K-Lite Codec Pack or shark007 codecs\nin case of any kind of problem in playback (For non-VLC Media Player users). Alternatively, install\nCore AVC codecs, the fastest decoder that there is coupled with Community Center Codec Pack and play\non Windows Media Player Classic. Check sample to be sure.\nEnjoy!\n\nEncoder Notes:Looking For Early Access To Anything You Can Provide DVDScr, R5, DVDR, BluRay, Direct\nAudio, Music Releases and Seedboxes. We require dedicated servers, so as to do more \nand fast releases of movies.\nIf You Got anything to offer please contact us at &quot;&lt;a class=&quot;__cf_email__&quot; href=&quot;/cdn-cgi/l/email-protection&quot; data-cfemail=&quot;55252732153d20263d7b363a38&quot;&gt;[email&amp;#160;protected]&lt;/a&gt;&lt;script cf-hash='f9e31' type=&quot;text/javascript&quot;&gt;\n/* &lt;![CDATA[ */!function(){try{var t=&quot;currentScript&quot;in document?document.currentScript:function(){for(var t=document.getElementsByTagName(&quot;script&quot;),e=t.length;e--;)if(t[e].getAttribute(&quot;cf-hash&quot;))return t[e]}();if(t&amp;&amp;t.previousSibling){var e,r,n,i,c=t.previousSibling,a=c.getAttribute(&quot;data-cfemail&quot;);if(a){for(e=&quot;&quot;,r=parseInt(a.substr(0,2),16),n=2;a.length-n;n+=2)i=parseInt(a.substr(n,2),16)^r,e+=String.fromCharCode(i);e=document.createTextNode(e),c.parentNode.replaceChild(e,c)}}}catch(u){}}();/* ]]&gt; */&lt;/script&gt;&quot;.\n\nFace book Fan Page:  \nSearch P2PDL on FB.","torrent":{"xt":"urn:btih:55dddca471ddcaeb83d0146d25857684964d72cc","amp;dn":"Blackout+2013+WEBRip+480p+x264+AAC+-+VYTO+%5BP2PDL%5D","amp;tr":["udp%3A%2F%2Ftracker.openbittorrent.com%3A80","udp%3A%2F%2Fopen.demonii.com%3A1337","udp%3A%2F%2Ftracker.coppersurfer.tk%3A6969","udp%3A%2F%2Fexodus.desync.com%3A6969"],"infoHash":"55dddca471ddcaeb83d0146d25857684964d72cc","infoHashBuffer":{"type":"Buffer","data":[85,221,220,164,113,221,202,235,131,208,20,109,37,133,118,132,150,77,114,204]},"announce":[],"urlList":[]}}